# xmcd
#
# Track frame offsets:
# 150
# 24252
# 43152
# 70012
# 93963
# 121687
# 146853
# 161053
# 182245
# 206106
# 218529
# 242405
#
# Disc length: 3499 seconds
#
# Revision: 2
# Processed by: cddbd v1.4PL0 Copyright (c) Steve Scherf et al.
# Submitted via: Axialis_AX_CDPlayer 2.6
#
DISCID=a30da90c
DTITLE=Michael Nesmith - Tropical Campfires
DYEAR=1900
DGENRE=
TTITLE0=Yellow Butterfly
TTITLE1=Laugh Kills Lonesome
TTITLE2=Moon Over Rio Grande
TTITLE3=One...
TTITLE4=Juliana
TTITLE5=Brazil
TTITLE6=In the Still of the Night
TTITLE7=Rising in Love
TTITLE8=Begin the Beguine
TTITLE9=I am Not That
TTITLE10=For the Island
TTITLE11=Twilight on the Trail
EXTD=
EXTT0=
EXTT1=
EXTT2=
EXTT3=
EXTT4=
EXTT5=
EXTT6=
EXTT7=
EXTT8=
EXTT9=
EXTT10=
EXTT11=
PLAYORDER=
